<?xml version="1.0"?>
<svg xmlns="http://www.w3.org/2000/svg" xmlns:xlink="http://www.w3.org/1999/xlink" version="1.1" id="Capa_1" x="0px" y="0px" viewBox="0 0 512 512" style="enable-background:new 0 0 512 512;" xml:space="preserve" width="512px" height="512px"><g><g>
	<g>
		<path d="M400.601,385.6c-8.284,0-15,6.716-15,15s6.716,15,15,15H497c8.284,0,15-6.716,15-15v-96.4c0-8.284-6.716-15-15-15H304.2    c-8.284,0-15,6.716-15,15V482H30V319.2h162.8v66.4h-81.4c-8.284,0-15,6.716-15,15s6.716,15,15,15h96.4c8.284,0,15-6.716,15-15    v-96.4c0-8.284-6.716-15-15-15H15c-8.284,0-15,6.716-15,15V497c0,8.284,6.716,15,15,15h482c8.284,0,15-6.716,15-15    s-6.716-15-15-15H319.2V319.2H482v66.4H400.601z" data-original="#000000" class="active-path" data-old_color="#000000" fill="#EC2576"/>
	</g>
</g><g>
	<g>
		<path d="M497,0H304.2c-8.284,0-15,6.716-15,15v96.4c0,8.284,6.716,15,15,15h96.4c8.284,0,15-6.716,15-15s-6.716-15-15-15h-81.4V30    H482v162.801H222.8V15c0-8.284-6.716-15-15-15H15C6.716,0,0,6.716,0,15v96.4c0,8.284,6.716,15,15,15h96.399    c8.284,0,15-6.716,15-15s-6.716-15-15-15H30V30h162.8v162.801H15c-8.284,0-15,6.716-15,15s6.716,15,15,15h482    c8.284,0,15-6.716,15-15V15C512,6.716,505.284,0,497,0z" data-original="#000000" class="active-path" data-old_color="#000000" fill="#EC2576"/>
	</g>
</g></g> </svg>
