<svg width="1440" height="900" xmlns="http://www.w3.org/2000/svg"><path d="M1047,651L1155,705L1343,440Z" fill="rgb(254,209,190)" stroke="rgb(254,209,190)" stroke-width="1.51"></path><path d="M1343,440L1093,245L1047,651Z" fill="rgb(250,183,173)" stroke="rgb(250,183,173)" stroke-width="1.51"></path><path d="M1155,705L1435,676L1343,440Z" fill="rgb(252,193,170)" stroke="rgb(252,193,170)" stroke-width="1.51"></path><path d="M1093,245L931,343L1047,651Z" fill="rgb(251,192,189)" stroke="rgb(251,192,189)" stroke-width="1.51"></path><path d="M1343,440L1176,143L1093,245Z" fill="rgb(242,149,147)" stroke="rgb(242,149,147)" stroke-width="1.51"></path><path d="M1093,245L778,191L931,343Z" fill="rgb(245,171,178)" stroke="rgb(245,171,178)" stroke-width="1.51"></path><path d="M1435,676L1651,397L1343,440Z" fill="rgb(246,163,141)" stroke="rgb(246,163,141)" stroke-width="1.51"></path><path d="M1343,440L1605,174L1176,143Z" fill="rgb(235,127,122)" stroke="rgb(235,127,122)" stroke-width="1.51"></path><path d="M931,343L751,795L1047,651Z" fill="rgb(255,227,218)" stroke="rgb(255,227,218)" stroke-width="1.51"></path><path d="M1000,1038L1203,1046L1155,705Z" fill="rgb(246,163,130)" stroke="rgb(246,163,130)" stroke-width="1.51"></path><path d="M1155,705L1203,1046L1435,676Z" fill="rgb(246,164,130)" stroke="rgb(246,164,130)" stroke-width="1.51"></path><path d="M771,-30L778,191L1093,245Z" fill="rgb(236,152,165)" stroke="rgb(236,152,165)" stroke-width="1.51"></path><path d="M931,343L660,349L751,795Z" fill="rgb(251,194,194)" stroke="rgb(251,194,194)" stroke-width="1.51"></path><path d="M1000,1038L1155,705L1047,651Z" fill="rgb(251,186,161)" stroke="rgb(251,186,161)" stroke-width="1.51"></path><path d="M1749,768L1772,434L1651,397Z" fill="rgb(247,169,144)" stroke="rgb(247,169,144)" stroke-width="1.51"></path><path d="M751,795L1000,1038L1047,651Z" fill="rgb(252,190,167)" stroke="rgb(252,190,167)" stroke-width="1.51"></path><path d="M778,191L660,349L931,343Z" fill="rgb(244,158,169)" stroke="rgb(244,158,169)" stroke-width="1.51"></path><path d="M1651,397L1605,174L1343,440Z" fill="rgb(238,132,120)" stroke="rgb(238,132,120)" stroke-width="1.51"></path><path d="M1176,143L771,-30L1093,245Z" fill="rgb(235,153,163)" stroke="rgb(235,153,163)" stroke-width="1.51"></path><path d="M1605,174L1217,-75L1176,143Z" fill="rgb(225,113,116)" stroke="rgb(225,113,116)" stroke-width="1.51"></path><path d="M1651,397L1812,128L1605,174Z" fill="rgb(232,118,112)" stroke="rgb(232,118,112)" stroke-width="1.51"></path><path d="M1749,768L1651,397L1435,676Z" fill="rgb(249,178,149)" stroke="rgb(249,178,149)" stroke-width="1.51"></path><path d="M1583,1005L1749,768L1435,676Z" fill="rgb(240,143,104)" stroke="rgb(240,143,104)" stroke-width="1.51"></path><path d="M1203,1046L1583,1005L1435,676Z" fill="rgb(237,132,90)" stroke="rgb(237,132,90)" stroke-width="1.51"></path><path d="M1203,1046L1287,1160L1583,1005Z" fill="rgb(238,137,97)" stroke="rgb(238,137,97)" stroke-width="1.51"></path><path d="M985,1378L1287,1160L1203,1046Z" fill="rgb(245,159,125)" stroke="rgb(245,159,125)" stroke-width="1.51"></path><path d="M1217,-75L1089,-139L1176,143Z" fill="rgb(224,123,134)" stroke="rgb(224,123,134)" stroke-width="1.51"></path><path d="M1089,-139L771,-30L1176,143Z" fill="rgb(228,140,154)" stroke="rgb(228,140,154)" stroke-width="1.51"></path><path d="M778,191L421,207L660,349Z" fill="rgb(237,133,152)" stroke="rgb(237,133,152)" stroke-width="1.51"></path><path d="M751,795L675,1054L1000,1038Z" fill="rgb(246,163,141)" stroke="rgb(246,163,141)" stroke-width="1.51"></path><path d="M660,349L478,547L751,795Z" fill="rgb(250,189,191)" stroke="rgb(250,189,191)" stroke-width="1.51"></path><path d="M421,207L478,547L660,349Z" fill="rgb(240,140,156)" stroke="rgb(240,140,156)" stroke-width="1.51"></path><path d="M1000,1038L985,1378L1203,1046Z" fill="rgb(247,170,138)" stroke="rgb(247,170,138)" stroke-width="1.51"></path><path d="M393,994L675,1054L751,795Z" fill="rgb(240,140,126)" stroke="rgb(240,140,126)" stroke-width="1.51"></path><path d="M1605,174L1645,-103L1217,-75Z" fill="rgb(215,91,97)" stroke="rgb(215,91,97)" stroke-width="1.51"></path><path d="M1217,-75L1352,-353L1089,-139Z" fill="rgb(222,117,126)" stroke="rgb(222,117,126)" stroke-width="1.51"></path><path d="M1772,434L1812,128L1651,397Z" fill="rgb(237,129,118)" stroke="rgb(237,129,118)" stroke-width="1.51"></path><path d="M2093,156L1812,128L1772,434Z" fill="rgb(232,118,112)" stroke="rgb(232,118,112)" stroke-width="1.51"></path><path d="M1812,128L1645,-103L1605,174Z" fill="rgb(220,99,101)" stroke="rgb(220,99,101)" stroke-width="1.51"></path><path d="M478,547L376,612L751,795Z" fill="rgb(248,176,176)" stroke="rgb(248,176,176)" stroke-width="1.51"></path><path d="M211,282L376,612L478,547Z" fill="rgb(239,148,162)" stroke="rgb(239,148,162)" stroke-width="1.51"></path><path d="M1749,768L2022,771L1772,434Z" fill="rgb(248,171,140)" stroke="rgb(248,171,140)" stroke-width="1.51"></path><path d="M1583,1005L1854,966L1749,768Z" fill="rgb(235,128,86)" stroke="rgb(235,128,86)" stroke-width="1.51"></path><path d="M1846,1261L1854,966L1583,1005Z" fill="rgb(235,128,86)" stroke="rgb(235,128,86)" stroke-width="1.51"></path><path d="M771,-30L421,207L778,191Z" fill="rgb(229,124,147)" stroke="rgb(229,124,147)" stroke-width="1.51"></path><path d="M1645,-103L1482,-274L1217,-75Z" fill="rgb(215,91,97)" stroke="rgb(215,91,97)" stroke-width="1.51"></path><path d="M764,-384L485,-151L771,-30Z" fill="rgb(221,112,140)" stroke="rgb(221,112,140)" stroke-width="1.51"></path><path d="M675,1054L985,1378L1000,1038Z" fill="rgb(248,172,147)" stroke="rgb(248,172,147)" stroke-width="1.51"></path><path d="M1287,1160L1591,1314L1583,1005Z" fill="rgb(235,128,86)" stroke="rgb(235,128,86)" stroke-width="1.51"></path><path d="M1854,966L2022,771L1749,768Z" fill="rgb(239,140,100)" stroke="rgb(239,140,100)" stroke-width="1.51"></path><path d="M1854,966L2150,1013L2022,771Z" fill="rgb(235,128,86)" stroke="rgb(235,128,86)" stroke-width="1.51"></path><path d="M1299,1505L1591,1314L1287,1160Z" fill="rgb(237,134,92)" stroke="rgb(237,134,92)" stroke-width="1.51"></path><path d="M1482,-274L1352,-353L1217,-75Z" fill="rgb(218,102,109)" stroke="rgb(218,102,109)" stroke-width="1.51"></path><path d="M376,612L393,994L751,795Z" fill="rgb(242,146,140)" stroke="rgb(242,146,140)" stroke-width="1.51"></path><path d="M675,1054L620,1287L985,1378Z" fill="rgb(245,158,137)" stroke="rgb(245,158,137)" stroke-width="1.51"></path><path d="M1645,-103L1710,-381L1482,-274Z" fill="rgb(215,91,97)" stroke="rgb(215,91,97)" stroke-width="1.51"></path><path d="M1482,-274L1710,-381L1352,-353Z" fill="rgb(215,91,97)" stroke="rgb(215,91,97)" stroke-width="1.51"></path><path d="M1812,128L1780,-206L1645,-103Z" fill="rgb(215,91,97)" stroke="rgb(215,91,97)" stroke-width="1.51"></path><path d="M2155,-113L1780,-206L1812,128Z" fill="rgb(215,91,97)" stroke="rgb(215,91,97)" stroke-width="1.51"></path><path d="M393,994L620,1287L675,1054Z" fill="rgb(239,135,122)" stroke="rgb(239,135,122)" stroke-width="1.51"></path><path d="M728,1627L1100,1477L985,1378Z" fill="rgb(249,178,151)" stroke="rgb(249,178,151)" stroke-width="1.51"></path><path d="M985,1378L1100,1477L1287,1160Z" fill="rgb(246,163,130)" stroke="rgb(246,163,130)" stroke-width="1.51"></path><path d="M771,-30L485,-151L421,207Z" fill="rgb(218,99,131)" stroke="rgb(218,99,131)" stroke-width="1.51"></path><path d="M764,-384L771,-30L1089,-139Z" fill="rgb(227,136,155)" stroke="rgb(227,136,155)" stroke-width="1.51"></path><path d="M2022,771L2159,559L1772,434Z" fill="rgb(250,179,151)" stroke="rgb(250,179,151)" stroke-width="1.51"></path><path d="M2159,559L2093,156L1772,434Z" fill="rgb(240,141,126)" stroke="rgb(240,141,126)" stroke-width="1.51"></path><path d="M1100,1477L1299,1505L1287,1160Z" fill="rgb(243,151,115)" stroke="rgb(243,151,115)" stroke-width="1.51"></path><path d="M2022,771L2150,1013L2159,559Z" fill="rgb(242,149,112)" stroke="rgb(242,149,112)" stroke-width="1.51"></path><path d="M1591,1314L1846,1261L1583,1005Z" fill="rgb(235,128,86)" stroke="rgb(235,128,86)" stroke-width="1.51"></path><path d="M1610,1543L1846,1261L1591,1314Z" fill="rgb(235,128,86)" stroke="rgb(235,128,86)" stroke-width="1.51"></path><path d="M910,-484L764,-384L1089,-139Z" fill="rgb(228,141,159)" stroke="rgb(228,141,159)" stroke-width="1.51"></path><path d="M421,207L211,282L478,547Z" fill="rgb(233,123,146)" stroke="rgb(233,123,146)" stroke-width="1.51"></path><path d="M376,612L165,715L393,994Z" fill="rgb(235,136,137)" stroke="rgb(235,136,137)" stroke-width="1.51"></path><path d="M-45,12L211,282L65,-210Z" fill="rgb(199,58,110)" stroke="rgb(199,58,110)" stroke-width="1.51"></path><path d="M393,994L383,1321L620,1287Z" fill="rgb(236,124,116)" stroke="rgb(236,124,116)" stroke-width="1.51"></path><path d="M77,383L165,715L376,612Z" fill="rgb(236,154,167)" stroke="rgb(236,154,167)" stroke-width="1.51"></path><path d="M165,715L261,999L393,994Z" fill="rgb(227,110,107)" stroke="rgb(227,110,107)" stroke-width="1.51"></path><path d="M1352,-353L910,-484L1089,-139Z" fill="rgb(225,129,140)" stroke="rgb(225,129,140)" stroke-width="1.51"></path><path d="M2193,-485L1710,-381L1780,-206Z" fill="rgb(215,91,97)" stroke="rgb(215,91,97)" stroke-width="1.51"></path><path d="M1780,-206L1710,-381L1645,-103Z" fill="rgb(215,91,97)" stroke="rgb(215,91,97)" stroke-width="1.51"></path><path d="M1352,-353L1710,-381L910,-484Z" fill="rgb(219,105,112)" stroke="rgb(219,105,112)" stroke-width="1.51"></path><path d="M1846,1261L2150,1013L1854,966Z" fill="rgb(235,128,86)" stroke="rgb(235,128,86)" stroke-width="1.51"></path><path d="M1299,1505L1610,1543L1591,1314Z" fill="rgb(235,128,86)" stroke="rgb(235,128,86)" stroke-width="1.51"></path><path d="M1846,1261L2197,1197L2150,1013Z" fill="rgb(235,128,86)" stroke="rgb(235,128,86)" stroke-width="1.51"></path><path d="M211,282L77,383L376,612Z" fill="rgb(231,128,150)" stroke="rgb(231,128,150)" stroke-width="1.51"></path><path d="M-117,431L77,383L-94,124Z" fill="rgb(215,90,126)" stroke="rgb(215,90,126)" stroke-width="1.51"></path><path d="M620,1287L728,1627L985,1378Z" fill="rgb(245,160,139)" stroke="rgb(245,160,139)" stroke-width="1.51"></path><path d="M182,1231L383,1321L393,994Z" fill="rgb(229,114,109)" stroke="rgb(229,114,109)" stroke-width="1.51"></path><path d="M-94,124L77,383L211,282Z" fill="rgb(215,88,125)" stroke="rgb(215,88,125)" stroke-width="1.51"></path><path d="M764,-384L512,-406L485,-151Z" fill="rgb(218,101,133)" stroke="rgb(218,101,133)" stroke-width="1.51"></path><path d="M910,-484L512,-406L764,-384Z" fill="rgb(223,118,144)" stroke="rgb(223,118,144)" stroke-width="1.51"></path><path d="M2093,156L2155,-113L1812,128Z" fill="rgb(219,98,100)" stroke="rgb(219,98,100)" stroke-width="1.51"></path><path d="M2159,559L2155,-113L2093,156Z" fill="rgb(229,114,110)" stroke="rgb(229,114,110)" stroke-width="1.51"></path><path d="M393,1483L728,1627L620,1287Z" fill="rgb(240,137,124)" stroke="rgb(240,137,124)" stroke-width="1.51"></path><path d="M1100,1477L728,1627L1299,1505Z" fill="rgb(248,172,141)" stroke="rgb(248,172,141)" stroke-width="1.51"></path><path d="M1299,1505L1853,1640L1610,1543Z" fill="rgb(235,128,86)" stroke="rgb(235,128,86)" stroke-width="1.51"></path><path d="M2020,1491L2197,1197L1846,1261Z" fill="rgb(235,128,86)" stroke="rgb(235,128,86)" stroke-width="1.51"></path><path d="M2150,1013L2197,1197L2159,559Z" fill="rgb(235,128,86)" stroke="rgb(235,128,86)" stroke-width="1.51"></path><path d="M2159,559L2193,-485L2155,-113Z" fill="rgb(215,91,97)" stroke="rgb(215,91,97)" stroke-width="1.51"></path><path d="M261,999L182,1231L393,994Z" fill="rgb(227,111,108)" stroke="rgb(227,111,108)" stroke-width="1.51"></path><path d="M383,1321L393,1483L620,1287Z" fill="rgb(236,124,116)" stroke="rgb(236,124,116)" stroke-width="1.51"></path><path d="M-41,908L182,1231L261,999Z" fill="rgb(221,101,102)" stroke="rgb(221,101,102)" stroke-width="1.51"></path><path d="M-41,908L261,999L165,715Z" fill="rgb(222,105,107)" stroke="rgb(222,105,107)" stroke-width="1.51"></path><path d="M283,1434L393,1483L383,1321Z" fill="rgb(231,116,111)" stroke="rgb(231,116,111)" stroke-width="1.51"></path><path d="M182,1231L283,1434L383,1321Z" fill="rgb(228,111,108)" stroke="rgb(228,111,108)" stroke-width="1.51"></path><path d="M182,1231L-182,1481L283,1434Z" fill="rgb(219,98,101)" stroke="rgb(219,98,101)" stroke-width="1.51"></path><path d="M-139,748L-41,908L165,715Z" fill="rgb(221,112,120)" stroke="rgb(221,112,120)" stroke-width="1.51"></path><path d="M1853,1640L2020,1491L1846,1261Z" fill="rgb(235,128,86)" stroke="rgb(235,128,86)" stroke-width="1.51"></path><path d="M77,383L-117,431L165,715Z" fill="rgb(227,132,152)" stroke="rgb(227,132,152)" stroke-width="1.51"></path><path d="M211,282L421,207L65,-210Z" fill="rgb(211,80,120)" stroke="rgb(211,80,120)" stroke-width="1.51"></path><path d="M728,1627L1853,1640L1299,1505Z" fill="rgb(240,144,106)" stroke="rgb(240,144,106)" stroke-width="1.51"></path><path d="M1610,1543L1853,1640L1846,1261Z" fill="rgb(235,128,86)" stroke="rgb(235,128,86)" stroke-width="1.51"></path><path d="M65,-210L421,207L485,-151Z" fill="rgb(208,75,118)" stroke="rgb(208,75,118)" stroke-width="1.51"></path><path d="M144,-466L65,-210L485,-151Z" fill="rgb(204,68,114)" stroke="rgb(204,68,114)" stroke-width="1.51"></path><path d="M-45,12L-94,124L211,282Z" fill="rgb(204,69,115)" stroke="rgb(204,69,115)" stroke-width="1.51"></path><path d="M-117,431L-139,748L165,715Z" fill="rgb(228,140,155)" stroke="rgb(228,140,155)" stroke-width="1.51"></path><path d="M2155,-113L2193,-485L1780,-206Z" fill="rgb(215,91,97)" stroke="rgb(215,91,97)" stroke-width="1.51"></path><path d="M1710,-381L2193,-485L910,-484Z" fill="rgb(215,91,97)" stroke="rgb(215,91,97)" stroke-width="1.51"></path><path d="M2197,1197L2193,-485L2159,559Z" fill="rgb(242,148,131)" stroke="rgb(242,148,131)" stroke-width="1.51"></path><path d="M512,-406L144,-466L485,-151Z" fill="rgb(210,80,121)" stroke="rgb(210,80,121)" stroke-width="1.51"></path><path d="M-319,-53L-94,124L-45,12Z" fill="rgb(195,51,107)" stroke="rgb(195,51,107)" stroke-width="1.51"></path><path d="M-319,-53L-315,181L-94,124Z" fill="rgb(199,60,110)" stroke="rgb(199,60,110)" stroke-width="1.51"></path><path d="M910,-484L144,-466L512,-406Z" fill="rgb(216,93,128)" stroke="rgb(216,93,128)" stroke-width="1.51"></path><path d="M-396,1043L-170,1162L-41,908Z" fill="rgb(215,91,97)" stroke="rgb(215,91,97)" stroke-width="1.51"></path><path d="M-41,908L-170,1162L182,1231Z" fill="rgb(215,91,97)" stroke="rgb(215,91,97)" stroke-width="1.51"></path><path d="M-117,431L-272,538L-139,748Z" fill="rgb(228,141,159)" stroke="rgb(228,141,159)" stroke-width="1.51"></path><path d="M-315,181L-272,538L-117,431Z" fill="rgb(219,105,135)" stroke="rgb(219,105,135)" stroke-width="1.51"></path><path d="M-315,181L-117,431L-94,124Z" fill="rgb(211,81,121)" stroke="rgb(211,81,121)" stroke-width="1.51"></path><path d="M-272,538L-291,622L-139,748Z" fill="rgb(228,139,154)" stroke="rgb(228,139,154)" stroke-width="1.51"></path><path d="M-396,1043L-41,908L-139,748Z" fill="rgb(215,91,97)" stroke="rgb(215,91,97)" stroke-width="1.51"></path><path d="M-319,-53L-45,12L65,-210Z" fill="rgb(193,47,105)" stroke="rgb(193,47,105)" stroke-width="1.51"></path><path d="M-272,538L-315,181L-291,622Z" fill="rgb(222,117,143)" stroke="rgb(222,117,143)" stroke-width="1.51"></path><path d="M-159,-456L-319,-53L65,-210Z" fill="rgb(193,47,105)" stroke="rgb(193,47,105)" stroke-width="1.51"></path><path d="M144,-466L-159,-456L65,-210Z" fill="rgb(194,49,105)" stroke="rgb(194,49,105)" stroke-width="1.51"></path><path d="M-291,622L-396,1043L-139,748Z" fill="rgb(220,109,117)" stroke="rgb(220,109,117)" stroke-width="1.51"></path><path d="M-170,1162L-182,1481L182,1231Z" fill="rgb(215,91,97)" stroke="rgb(215,91,97)" stroke-width="1.51"></path><path d="M-315,181L-396,1043L-291,622Z" fill="rgb(228,143,159)" stroke="rgb(228,143,159)" stroke-width="1.51"></path><path d="M-433,1212L-396,1043L-315,181Z" fill="rgb(220,108,116)" stroke="rgb(220,108,116)" stroke-width="1.51"></path><path d="M-433,1212L-182,1481L-170,1162Z" fill="rgb(215,91,97)" stroke="rgb(215,91,97)" stroke-width="1.51"></path><path d="M283,1434L-182,1481L393,1483Z" fill="rgb(222,103,103)" stroke="rgb(222,103,103)" stroke-width="1.51"></path><path d="M393,1483L-345,1552L728,1627Z" fill="rgb(226,109,107)" stroke="rgb(226,109,107)" stroke-width="1.51"></path><path d="M-159,-456L-278,-451L-319,-53Z" fill="rgb(193,47,105)" stroke="rgb(193,47,105)" stroke-width="1.51"></path><path d="M-396,1043L-433,1212L-170,1162Z" fill="rgb(215,91,97)" stroke="rgb(215,91,97)" stroke-width="1.51"></path><path d="M-319,-53L-433,1212L-315,181Z" fill="rgb(222,117,143)" stroke="rgb(222,117,143)" stroke-width="1.51"></path><path d="M-433,1212L-345,1552L-182,1481Z" fill="rgb(215,91,97)" stroke="rgb(215,91,97)" stroke-width="1.51"></path><path d="M-182,1481L-345,1552L393,1483Z" fill="rgb(215,91,97)" stroke="rgb(215,91,97)" stroke-width="1.51"></path></svg>